# xmcd
#
# Track frame offsets:
#	150
#	19155
#	36905
#	58777
#	74857
#	96492
#	114060
#	130680
#	148892
#	162532
#	178950
#	194817
#	212630
#	231095
#	250277
#	266835
#
# Disc length: 3779 seconds
#
# Revision: 0
# Processed by: cddbd v1.4PL0 Copyright (c) Steve Scherf et al.
# Submitted via: dBpowerAMP V4.0
#
DISCID=040ec110
DTITLE=Steve Wariner - Steal Another Day
DYEAR=2003
DGENRE=Country
TTITLE0=Kiss Me Anyway
TTITLE1=Carmelita
TTITLE2=Snowfall On The Sand
TTITLE3=Ride The Rocket
TTITLE4=Steal Another Day
TTITLE5=I Really Don't Have Anything
TTITLE6=Welcome To This World
TTITLE7=There Will Come A Day (Holly's Song)
TTITLE8=I'm Your Man
TTITLE9=In My Heart Forever (For Chet)
TTITLE10=Where Did I Go Wrong
TTITLE11=The Weekend
TTITLE12=You Can Dream Of Me
TTITLE13=Some Fools Never Learn
TTITLE14=Small Town Girl
TTITLE15=This Christmas Prayer
EXTD=Selectone Records
EXTT0=
EXTT1=
EXTT2=
EXTT3=
EXTT4=
EXTT5=
EXTT6=
EXTT7=
EXTT8=
EXTT9=
EXTT10=
EXTT11=
EXTT12=
EXTT13=
EXTT14=
EXTT15=
PLAYORDER=
